<svg viewBox="0 0 400 44" focusable="false" class="chakra-icon css-1c7l4n7" xmlns="http://www.w3.org/2000/svg"><path d="M111.237 5.16553H99.8984V16.4952H111.237V5.16553Z" fill="#C8102E"></path><path d="M141.466 16.4952V5.16553H118.789V16.4952H141.466Z" fill="#C8102E"></path><path d="M118.789 35.3956H141.466V24.0571H118.789V35.3956Z" fill="#C8102E"></path><path d="M99.8984 24.0571V35.3956H111.237V24.0571H99.8984Z" fill="#C8102E"></path><path d="M113.121 5.16553H111.237V16.4952H99.8984V18.3966H113.121V5.16553Z" fill="white"></path><path d="M99.8984 22.1731V24.057H111.237V35.3954H113.121V22.1731H99.8984Z" fill="white"></path><path d="M141.466 16.4952H118.789V5.16553H116.896V18.3966H141.466V16.4952Z" fill="white"></path><path d="M141.466 22.1733H116.896V35.3957H118.789V24.0572H141.466V22.1733Z" fill="white"></path><path d="M141.467 22.1732V18.3966H116.906V5.16553H113.121V18.3966H99.8984V22.1732H113.121V35.3955H116.906V22.1732H141.467Z" fill="#00205B"></path><path d="M151.688 4.96289H161.019L173.313 28.4284V4.96289H179.56V34.9914H170.229L157.935 11.5259V34.9914H151.688V4.96289Z" fill="currentColor"></path><path d="M184.162 24.1786C184.162 17.3702 189.525 12.77 195.571 12.77C201.617 12.77 206.979 17.379 206.979 24.1786C206.979 30.9781 201.617 35.5871 195.571 35.5871C189.525 35.5871 184.162 30.9781 184.162 24.1786ZM200.977 24.1786C200.977 20.218 198.532 18.3691 195.571 18.3691C192.609 18.3691 190.164 20.2092 190.164 24.1786C190.164 28.1479 192.609 29.988 195.571 29.988C198.532 29.988 200.977 28.1479 200.977 24.1786Z" fill="currentColor"></path><path d="M217.195 34.9913H211.184V13.3746H217.195V18.4217C218.272 15.5827 220.077 13.1731 223.162 13.1731H225.282V20.3845H217.195V35V34.9913Z" fill="currentColor"></path><path d="M227.078 13.3745H233.404L237.172 30.9167L241.177 13.3745H248.861L253.19 30.4348L256.633 13.3745H262.723L257.597 34.9999H249.072L244.909 18.5443L241.142 34.9999H232.213L227.087 13.3745H227.078Z" fill="currentColor"></path><path d="M278.05 31.7492C276.411 33.8697 274.089 35.3943 271.04 35.3943C266.878 35.3943 264.311 32.5553 264.311 28.9891C264.311 25.1074 267.395 22.4611 273.003 22.4611H278.05V20.6999C278.05 18.8949 276.849 17.9748 274.606 17.9748C272.363 17.9748 271.487 18.8949 271.364 20.218H265.555C266.159 16.1348 269.603 12.77 275.202 12.77C280.17 12.77 284.052 15.3286 284.052 20.2618V35H278.05V31.758V31.7492ZM278.05 27.1052V26.4655H272.521C270.882 26.4655 269.918 27.0263 269.918 28.2706C269.918 29.5148 271.119 30.356 273.642 30.356C275.447 30.356 278.05 29.7952 278.05 27.1139V27.1052Z" fill="currentColor"></path><path d="M296.547 34.9911H293.585L286.855 13.3657H293.261L298.027 30.7852L303.197 13.3657H309.199L299.745 42.9999H293.979L296.538 34.9911H296.547Z" fill="currentColor"></path><path d="M0 5.35815H7.21139L14.0197 29.7875L20.8193 5.35815H27.6276L18.2169 35.3954H9.41073L0 5.35815Z" fill="currentColor"></path><path d="M30.1875 7.44359C30.1875 5.40197 31.7472 4 33.6311 4C35.515 4 37.0747 5.40197 37.0747 7.44359C37.0747 9.48521 35.515 10.8872 33.6311 10.8872C31.7472 10.8872 30.1875 9.48521 30.1875 7.44359ZM30.6256 13.77H36.6278V35.3954H30.6256V13.77Z" fill="currentColor"></path><path d="M40.2012 28.6311H45.8091C45.8091 30.033 46.9744 30.9969 49.4104 30.9969C51.5747 30.9969 52.5298 30.1995 52.5298 29.2707C52.5298 28.1929 51.7674 27.5883 47.6842 26.7472C43.7587 25.9498 40.9197 24.3463 40.9197 20.2981C40.9197 15.7767 44.8014 13.1743 49.2088 13.1743C54.3786 13.1743 57.3403 15.5752 57.9011 20.263H52.2932C52.2143 19.0626 51.4082 18.1776 49.2526 18.1776C47.693 18.1776 46.5276 18.8611 46.5276 20.0177C46.5276 21.1743 47.1672 21.5423 51.2505 22.3835C55.176 23.1809 58.1376 24.4251 58.1376 28.5872C58.1376 33.2751 53.9755 35.9914 49.6119 35.9914C44.4071 35.9914 40.7181 32.9071 40.2012 28.6223V28.6311Z" fill="currentColor"></path><path d="M61.502 7.44359C61.502 5.40197 63.0616 4 64.9455 4C66.8294 4 68.3891 5.40197 68.3891 7.44359C68.3891 9.48521 66.8294 10.8872 64.9455 10.8872C63.0616 10.8872 61.502 9.48521 61.502 7.44359ZM61.9401 13.77H67.9423V35.3954H61.9401V13.77Z" fill="currentColor"></path><path d="M75.7148 29.1917V18.9836H71.5527V13.7788H75.7148V8.96826H81.7258V13.77H87.1321V18.9748H81.7258V30.3834H87.1321V35.5882H82.9262C78.4837 35.5882 75.7148 33.31 75.7148 29.1829V29.1917Z" fill="currentColor"></path></svg>