<svg viewBox="0 0 32 27" focusable="false" class="chakra-icon css-zlqonm" xmlns="http://www.w3.org/2000/svg"><g clip-path="url(#clip0_1340_16710)"><path d="M13.4302 14.1L22.7802 10.45L23.9502 11.24L14.6002 14.9L13.4302 14.11V14.1ZM16.9102 11.33C16.6802 11.17 16.4902 10.99 16.3302 10.77C16.1702 10.55 16.0702 10.31 16.0102 10.06C15.9502 9.79997 15.9502 9.53997 16.0102 9.25997C16.0602 8.97997 16.1802 8.70997 16.3602 8.43997C16.5402 8.16997 16.7502 7.95997 16.9902 7.80997C17.2302 7.65997 17.4702 7.55997 17.7302 7.51997C17.9902 7.47997 18.2502 7.48997 18.5102 7.54997C18.7702 7.60997 19.0202 7.71997 19.2502 7.86997C19.4802 8.02997 19.6702 8.20997 19.8302 8.42997C19.9802 8.64997 20.0902 8.88997 20.1502 9.13997C20.2102 9.39997 20.2102 9.65997 20.1502 9.93997C20.0902 10.22 19.9802 10.49 19.8002 10.76C19.6202 11.03 19.4102 11.24 19.1702 11.39C18.9302 11.54 18.6902 11.64 18.4302 11.68C18.1702 11.72 17.9102 11.71 17.6502 11.65C17.3902 11.59 17.1402 11.48 16.9102 11.32V11.33ZM18.1302 17.47C17.9002 17.31 17.7102 17.13 17.5502 16.91C17.4002 16.69 17.2902 16.45 17.2302 16.2C17.1702 15.94 17.1702 15.68 17.2302 15.4C17.2802 15.12 17.4002 14.85 17.5802 14.58C17.7602 14.31 17.9702 14.1 18.2102 13.95C18.4502 13.8 18.6902 13.7 18.9502 13.65C19.2102 13.61 19.4702 13.62 19.7302 13.68C19.9902 13.74 20.2402 13.85 20.4702 14.01C20.7002 14.17 20.8902 14.35 21.0502 14.57C21.2002 14.79 21.3102 15.03 21.3702 15.28C21.4302 15.54 21.4302 15.8 21.3702 16.08C21.3202 16.36 21.2002 16.63 21.0202 16.9C20.8402 17.17 20.6302 17.38 20.3902 17.53C20.1502 17.68 19.9102 17.78 19.6502 17.82C19.3902 17.86 19.1302 17.85 18.8702 17.79C18.6102 17.73 18.3602 17.62 18.1302 17.47ZM17.6102 10.29C17.7702 10.4 17.9602 10.44 18.1602 10.4C18.3702 10.37 18.5402 10.24 18.7002 10.01C18.8502 9.78997 18.9102 9.56997 18.8602 9.36997C18.8202 9.16997 18.7102 9.00997 18.5502 8.89997C18.3702 8.77997 18.1802 8.73997 17.9902 8.77997C17.8002 8.81997 17.6202 8.94997 17.4602 9.17997C17.3102 9.40997 17.2502 9.61997 17.2902 9.81997C17.3302 10.02 17.4402 10.18 17.6102 10.3V10.29ZM18.8302 16.43C18.9902 16.54 19.1802 16.58 19.3802 16.54C19.5802 16.51 19.7602 16.38 19.9202 16.15C20.0702 15.92 20.1302 15.71 20.0802 15.51C20.0402 15.31 19.9302 15.15 19.7702 15.04C19.5902 14.92 19.4102 14.88 19.2102 14.92C19.0102 14.96 18.8302 15.09 18.6802 15.32C18.5302 15.55 18.4702 15.76 18.5102 15.96C18.5502 16.16 18.6602 16.32 18.8302 16.44V16.43Z" fill="currentColor"></path><path d="M17.8902 1.26001L25.6802 1.01001L27.4502 2.16001L30.1002 9.20001L19.9502 23.58L7.74023 15.64L17.8902 1.26001Z" stroke="currentColor" stroke-width="2" stroke-miterlimit="10"></path><path d="M16.3399 20.93L13.5799 24.8L1.41992 16.79L11.6299 2.47002L16.6199 2.33002" stroke="currentColor" stroke-width="2" stroke-miterlimit="10"></path><path d="M23.6102 4.58998C22.9702 4.70998 22.5402 5.31998 22.6602 5.93998C22.7802 6.55998 23.4002 6.95998 24.0402 6.83998C24.6802 6.71998 25.1102 6.10998 24.9902 5.48998C24.8702 4.86998 24.2502 4.46998 23.6102 4.58998Z" fill="currentColor"></path></g><defs><clipPath id="clip0_1340_16710"><rect width="31.22" height="26.16" fill="currentColor"></rect></clipPath></defs></svg>